<?xml version="1.0" encoding="UTF-8" standalone="no"?>
<svg
   width="64"
   height="64"
   version="1"
   id="svg12"
   sodipodi:docname="softwared.svg"
   inkscape:version="1.2.1 (9c6d41e410, 2022-07-14)"
   xmlns:inkscape="http://www.inkscape.org/namespaces/inkscape"
   xmlns:sodipodi="http://sodipodi.sourceforge.net/DTD/sodipodi-0.dtd"
   xmlns="http://www.w3.org/2000/svg"
   xmlns:svg="http://www.w3.org/2000/svg">
  <defs
     id="defs16" />
  <sodipodi:namedview
     id="namedview14"
     pagecolor="#ffffff"
     bordercolor="#000000"
     borderopacity="0.25"
     inkscape:showpageshadow="2"
     inkscape:pageopacity="0.0"
     inkscape:pagecheckerboard="0"
     inkscape:deskcolor="#d1d1d1"
     showgrid="false"
     inkscape:zoom="8"
     inkscape:cx="28.625"
     inkscape:cy="29.375"
     inkscape:window-width="1920"
     inkscape:window-height="1017"
     inkscape:window-x="1272"
     inkscape:window-y="-8"
     inkscape:window-maximized="1"
     inkscape:current-layer="svg12" />
  <path
     style="opacity:0.2"
     d="m 24,8 0,2 16,0 0,-2 -16,0 z M 4,51 4,53 c 0,1.662 1.338,3 3,3 l 50,0 c 1.662,0 3,-1.338 3,-3 l 0,-2 c 0,1.662 -1.338,3 -3,3 L 7,54 C 5.338,54 4,52.662 4,51 Z"
     id="path2" />
  <path
     style="fill:#e4e4e4"
     d="m 24,5 -4,4 0,6 -16,0 0,37 c 0,1.662 1.338,3 3,3 l 50,0 c 1.662,0 3,-1.338 3,-3 L 60,15 44,15 44,9 40,5 Z m 0,4 16,0 0,6 -16,0 z"
     id="path4" />
  <path
     style="opacity:0.2;fill-rule:evenodd"
     d="M 63.958,45.894 A 15,15 0 0 1 49,60 15,15 0 0 1 34.042,46.106 15,15 0 0 0 34,47 15,15 0 0 0 49,62 15,15 0 0 0 64,47 15,15 0 0 0 63.958,45.894 Z"
     id="path6" />
  <g
     id="g909"
     transform="matrix(1.3233653,0,0,1.3233653,-185.69983,-291.02009)"
     style="display:inline">
    <ellipse
       ry="9.9691219"
       rx="9.775548"
       cy="254.72061"
       cx="177.20531"
       id="path1393-5"
       style="opacity:1;fill:#87cf3e;fill-opacity:1;stroke:none;stroke-width:1.02427;stroke-miterlimit:4;stroke-dasharray:none;stroke-opacity:1" />
    <g
       style="fill:#92b372;fill-opacity:1;stroke:none;stroke-opacity:1"
       inkscape:label="Calque 1"
       id="layer1-6-7-4"
       transform="matrix(0.20596182,0,0,0.20596182,166.01601,204.83306)">
      <path
         inkscape:connector-curvature="0"
         id="path1374-2-6-7"
         d="M 55.033203,186.93359 C 24.693454,186.93359 0,211.62705 0,241.9668 0,272.30655 24.693454,297 55.033203,297 c 30.339749,0 55.033207,-24.69345 55.033207,-55.0332 0,-30.33975 -24.693458,-55.03321 -55.033207,-55.03321 z m 0,9.17188 c 25.382656,0 45.861327,20.47867 45.861327,45.86133 0,25.38265 -20.478671,45.86132 -45.861327,45.86132 -25.382656,0 -45.861328,-20.47867 -45.861328,-45.86132 0,-25.38266 20.478672,-45.86133 45.861328,-45.86133 z"
         style="color:#000000;font-style:normal;font-variant:normal;font-weight:normal;font-stretch:normal;font-size:medium;line-height:normal;font-family:sans-serif;font-variant-ligatures:normal;font-variant-position:normal;font-variant-caps:normal;font-variant-numeric:normal;font-variant-alternates:normal;font-feature-settings:normal;text-indent:0;text-align:start;text-decoration:none;text-decoration-line:none;text-decoration-style:solid;text-decoration-color:#000000;letter-spacing:normal;word-spacing:normal;text-transform:none;writing-mode:lr-tb;direction:ltr;text-orientation:mixed;dominant-baseline:auto;baseline-shift:baseline;text-anchor:start;white-space:normal;shape-padding:0;clip-rule:nonzero;display:inline;overflow:visible;visibility:visible;opacity:1;isolation:auto;mix-blend-mode:normal;color-interpolation:sRGB;color-interpolation-filters:linearRGB;solid-color:#000000;solid-opacity:1;vector-effect:none;fill:#ffffff;fill-opacity:1;fill-rule:nonzero;stroke:none;stroke-width:9.17233;stroke-linecap:butt;stroke-linejoin:miter;stroke-miterlimit:4;stroke-dasharray:none;stroke-dashoffset:0;stroke-opacity:1;color-rendering:auto;image-rendering:auto;shape-rendering:auto;text-rendering:auto;enable-background:accumulate" />
      <g
         transform="matrix(0.26458333,0,0,0.26458333,4.2333331,186.93332)"
         inkscape:label="Layer 1"
         id="layer3-9-56-4"
         style="fill:#92b372;fill-opacity:1;stroke:none;stroke-opacity:1">
        <path
           inkscape:connector-curvature="0"
           id="path4193-1-9-4"
           d="m 80,104 v 144 c 0,35.15671 28.84329,64 64,64 h 96 c 35.15671,0 64,-28.84329 64,-64 v -80 c 0,-26.32015 -21.67985,-48 -48,-48 -12.29591,0 -23.46684,4.8602 -32,12.58594 C 215.46684,124.8602 204.29591,120 192,120 c -26.32015,0 -48,21.67985 -48,48 v 80 h 32 v -80 c 0,-9.02607 6.97393,-16 16,-16 9.02607,0 16,6.97393 16,16 v 80 h 32 v -80 c 0,-9.02607 6.97393,-16 16,-16 9.02607,0 16,6.97393 16,16 v 80 c 0,17.86263 -14.13737,32 -32,32 h -96 c -17.86263,0 -32,-14.13737 -32,-32 V 104 Z"
           style="color:#000000;font-style:normal;font-variant:normal;font-weight:normal;font-stretch:normal;font-size:medium;line-height:normal;font-family:sans-serif;font-variant-ligatures:normal;font-variant-position:normal;font-variant-caps:normal;font-variant-numeric:normal;font-variant-alternates:normal;font-feature-settings:normal;text-indent:0;text-align:start;text-decoration:none;text-decoration-line:none;text-decoration-style:solid;text-decoration-color:#000000;letter-spacing:normal;word-spacing:normal;text-transform:none;writing-mode:lr-tb;direction:ltr;text-orientation:mixed;dominant-baseline:auto;baseline-shift:baseline;text-anchor:start;white-space:normal;shape-padding:0;clip-rule:nonzero;display:inline;overflow:visible;visibility:visible;opacity:1;isolation:auto;mix-blend-mode:normal;color-interpolation:sRGB;color-interpolation-filters:linearRGB;solid-color:#000000;solid-opacity:1;vector-effect:none;fill:#ffffff;fill-opacity:1;fill-rule:nonzero;stroke:none;stroke-width:32;stroke-linecap:butt;stroke-linejoin:miter;stroke-miterlimit:4;stroke-dasharray:none;stroke-dashoffset:0;stroke-opacity:1;color-rendering:auto;image-rendering:auto;shape-rendering:auto;text-rendering:auto;enable-background:accumulate" />
      </g>
    </g>
  </g>
</svg>
