<?xml version="1.0" encoding="UTF-8" standalone="no"?>
<svg
   width="22"
   height="22"
   enable-background="new"
   version="1.1"
   id="svg61"
   sodipodi:docname="minimize.svg"
   inkscape:version="1.1.1 (3bf5ae0d25, 2021-09-20)"
   xmlns:inkscape="http://www.inkscape.org/namespaces/inkscape"
   xmlns:sodipodi="http://sodipodi.sourceforge.net/DTD/sodipodi-0.dtd"
   xmlns:xlink="http://www.w3.org/1999/xlink"
   xmlns="http://www.w3.org/2000/svg"
   xmlns:svg="http://www.w3.org/2000/svg">
  <defs
     id="defs65" />
  <sodipodi:namedview
     id="namedview63"
     pagecolor="#505050"
     bordercolor="#eeeeee"
     borderopacity="1"
     inkscape:pageshadow="0"
     inkscape:pageopacity="0"
     inkscape:pagecheckerboard="0"
     showgrid="false"
     inkscape:zoom="7.8522727"
     inkscape:cx="8.9782923"
     inkscape:cy="43.363242"
     inkscape:window-width="1704"
     inkscape:window-height="864"
     inkscape:window-x="0"
     inkscape:window-y="0"
     inkscape:window-maximized="1"
     inkscape:current-layer="svg61" />
  <use
     transform="translate(27.966)"
     width="100%"
     height="100%"
     xlink:href="#g1051"
     id="use2" />
  <g
     id="active-center"
     opacity=".7">
    <rect
       x="1.2357e-6"
       y="9.6173e-7"
       width="22"
       height="22"
       rx="0"
       ry="0"
       opacity="0"
       stroke-width="3"
       style="paint-order:fill markers stroke"
       id="rect4" />
    <g
       transform="translate(-584 188.64)"
       opacity=".8"
       style=""
       id="g12">
      <g
         transform="translate(-781 -432.64)"
         opacity="1"
         style=""
         id="g8">
        <path
           d="m1373 254v2h6v-2z"
           color="#000000"
           enable-background="accumulate"
           fill="#b9bcc2"
           opacity="1"
           style="text-decoration-line:none;text-indent:0;text-transform:none"
           id="path6" />
      </g>
      <rect
         x="587"
         y="-185.64"
         width="16"
         height="16"
         fill="none"
         opacity="1"
         style=""
         id="rect10" />
    </g>
  </g>
  <g
     id="hover-center"
     transform="matrix(1.375 0 0 1.375 -664.38 284.62)"
     stroke-width=".99174">
    <g
       transform="translate(-781 -432.64)"
       stroke-width=".99174"
       id="g23">
      <path
         d="m1273 248c-3.866 0-7 3.134-7 7s3.134 7 7 7 7-3.134 7-7-3.134-7-7-7z"
         fill="#5f7d7c"
         opacity=".45"
         id="path15"
         style="fill:#5e5e5e;fill-opacity:1" />
      <g
         transform="translate(1265,247)"
         fill="#c0e3ff"
         stroke-width=".99174"
         id="g21">
        <g
           transform="translate(-81 -967)"
           fill="#c0e3ff"
           stroke-width=".99174"
           id="g19">
          <path
             d="m86 974v2h6v-2z"
             color="#000000"
             enable-background="accumulate"
             fill="#96aaa9"
             fill-opacity=".98802"
             style="text-decoration-line:none;text-indent:0;text-transform:none;fill:#b2bcc2;fill-opacity:0.98823529"
             id="path17" />
        </g>
      </g>
    </g>
    <rect
       x="484"
       y="-185.64"
       width="16"
       height="16"
       fill="none"
       id="rect25" />
  </g>
  <g
     id="pressed-center"
     transform="matrix(1.375 0 0 1.375 -525.13 316.19)"
     stroke-width=".99174">
    <g
       transform="translate(-882 -432.64)"
       stroke-width=".99174"
       id="g34">
      <g
         transform="translate(-161)"
         id="g32">
        <g
           transform="translate(58)"
           stroke-width=".99174"
           id="g30">
          <path
             transform="matrix(.73333 0 0 .73333 1277.1 162.99)"
             d="m134.91 115.92a9.5455 9.5455 0 0 0-9.5449 9.5449 9.5455 9.5455 0 0 0 9.5449 9.5449 9.5455 9.5455 0 0 0 9.5469-9.5449 9.5455 9.5455 0 0 0-9.5469-9.5449zm-4.0898 8.1816h8.1816v2.7266h-8.1816z"
             fill="#2eb398"
             id="path28"
             style="fill:#717171;fill-opacity:1" />
        </g>
      </g>
    </g>
    <rect
       x="383"
       y="-185.64"
       width="16"
       height="16"
       fill="none"
       id="rect36" />
  </g>
  <g
     id="inactive-center"
     transform="translate(29.178)"
     opacity=".4">
    <rect
       x="1.2357e-6"
       y="9.6173e-7"
       width="22"
       height="22"
       rx="0"
       ry="0"
       opacity="0"
       stroke-width="3"
       style="paint-order:fill markers stroke"
       id="rect39" />
    <g
       transform="translate(-584,188.64)"
       opacity=".8"
       id="g47">
      <g
         transform="translate(-781,-432.64)"
         opacity="1"
         id="g43">
        <path
           d="m1373 254v2h6v-2z"
           color="#000000"
           enable-background="accumulate"
           fill="#b9bcc2"
           opacity="1"
           style="text-decoration-line:none;text-indent:0;text-transform:none"
           id="path41" />
      </g>
      <rect
         x="587"
         y="-185.64"
         width="16"
         height="16"
         fill="none"
         opacity="1"
         id="rect45" />
    </g>
  </g>
  <g
     id="deactivated-center"
     transform="translate(28.525 28.619)"
     opacity=".4">
    <rect
       x="1.2357e-6"
       y="9.6173e-7"
       width="22"
       height="22"
       rx="0"
       ry="0"
       opacity="0"
       stroke-width="3"
       style="paint-order:fill markers stroke"
       id="rect50" />
    <g
       transform="translate(-584,188.64)"
       opacity=".8"
       id="g58">
      <g
         transform="translate(-781,-432.64)"
         opacity="1"
         id="g54">
        <path
           d="m1373 254v2h6v-2z"
           color="#000000"
           enable-background="accumulate"
           fill="#b9bcc2"
           opacity="1"
           style="text-decoration-line:none;text-indent:0;text-transform:none"
           id="path52" />
      </g>
      <rect
         x="587"
         y="-185.64"
         width="16"
         height="16"
         fill="none"
         opacity="1"
         id="rect56" />
    </g>
  </g>
</svg>
